REM MD5 4e9e6dcf27ea0e15c5f4d1f93c800378
FILE "Mega Man 8 (USA).bin" BINARY
  TRACK 01 MODE2/2352
    INDEX 01 00:00:00
  TRACK 02 AUDIO
    INDEX 00 31:34:46
    INDEX 01 31:36:46
  TRACK 03 AUDIO
    INDEX 00 36:01:17
    INDEX 01 36:03:17
REM LEADOUT 39:33:17
